<svg width="396" height="160.506" viewBox="0 -4 369.913 149.933" xmlns="http://www.w3.org/2000/svg">
  <g transform="matrix(4.578954,0,0,4.578954,92.337,13.526)" fill="#eeeeee">
    <path d="M0.8 20V6.002h2.2V20H0.8zM9.3 20L6.6 9.86l-0.04 0V20H4.58V6.002h2.76l2.22 8.38h0.04V6.002h1.96V20H9.3zM12.5 8V6h6.8v2h-2.3v12h-2.2V8h-2.3zM22.46 8v3.9h3.02v2h-3.02v4.1h3.8v2h-6V6.002h6v2h-3.8zM34.46 20h-2.24c-0.12-0.36-0.2-0.58-0.2-1.72v-2.2c0-1.3-0.44-1.78-1.44-1.78h-0.76v5.7h-2.2V6.002h3.32c2.28 0 3.26 1.06 3.26 3.22v1.1c0 1.44-0.46 2.36-1.44 2.82h0.04c1.1 0.46 1.46 1.5 1.46 2.96v2.16c0 0.68 0.02 1.18 0.24 1.7zM30.88 8h-1.06v4.3h0.86c0.82 0 1.32-0.36 1.32-1.48v-1.38c0-1-0.34-1.44-1.12-1.44zM37.86 8v4.22h2.84v2h-2.84v5.78h-2.2V6.002h5.82v2h-3.62zM42.54 20V6.002h2.2v12h3.62v2h-5.82zM49.32 20V6.002h2.2V20h-2.2zM58.42 6h2.04l-2.3 6.8 2.46 7.2h-2.32l-1.78-5.54h-0.04l-1.8 5.54h-2.06l2.46-7.2-2.3-6.8h2.28l1.64 5.16h0.04z"/>
  </g>
</svg>